<svg xmlns="http://www.w3.org/2000/svg" viewBox="0 0 16 21.001" width="16" height="21.001">
  <path fill="#6264A7" d="M6.1511 13.7734C6.14811 13.7662 6.14515 13.7591 6.14224 13.7519C6.00645 13.7147 5.87231 13.6735 5.73995 13.6285C5.73995 13.6285 5.73996 13.6285 5.73995 13.6285C5.73678 13.6274 5.7336 13.6263 5.73043 13.6252C5.25831 13.4638 4.80894 13.2533 4.38838 12.9999C2.35562 11.775 0.996094 9.54627 0.996094 7C0.996094 3.13401 4.1301 0 7.99609 0C11.6091 0 14.5828 2.73729 14.9565 6.25118C15.0003 6.66307 14.6603 7 14.2461 7C13.8319 7 13.5015 6.66235 13.4456 6.25192C13.0807 3.56822 10.7799 1.5 7.99609 1.5C4.95853 1.5 2.49609 3.96243 2.49609 7C2.49609 9.3965 4.02883 11.435 6.16749 12.1887C6.47866 11.4884 7.18034 11 7.99609 11C9.10064 11 9.99605 11.8954 9.99609 12.9999C9.99609 12.9999 9.99609 12.9999 9.99609 12.9999C9.99609 14.1045 9.10066 15 7.99609 15C7.1657 15 6.4535 14.4939 6.1511 13.7734ZM5.12571 15.0027C3.93522 14.5756 2.86751 13.8905 1.9902 13.0146C0.870015 13.1429 0 14.0943 0 15.2488V16.1688C0 16.7408 0.178405 17.2987 0.510368 17.7646C2.05253 19.9289 4.57549 21.0011 7.99646 21.0011C11.4167 21.0011 13.941 19.9294 15.4869 17.7661C15.8203 17.2996 15.9995 16.7406 15.9995 16.1673V15.2488C15.9995 14.0068 14.9927 12.9999 13.7506 12.9999H11.4961C11.4961 14.9329 9.92909 16.5 7.99609 16.5C6.80631 16.5 5.75746 15.9066 5.12571 15.0027ZM11.9961 7C11.9961 5.76883 11.4399 4.66758 10.565 3.93383C9.86986 3.35102 8.97368 3 7.99609 3C5.78695 3 3.99609 4.79086 3.99609 7C3.99609 7.60915 4.13236 8.18695 4.37628 8.70425C4.68375 9.35619 5.16217 9.91166 5.75372 10.3128C6.36037 9.80592 7.14192 9.5 7.99609 9.5C8.84936 9.5 9.63132 9.80534 10.2387 10.3127C11.2992 9.59335 11.9961 8.37806 11.9961 7Z"/>
</svg>
